<mxfile modified="2023-02-23T23:01:32.576Z" host="app.diagrams.net" agent="5.0 (Windows NT 10.0; Win64; x64) AppleWebKit/537.36 (KHTML, like Gecko) Chrome/110.0.0.0 Safari/537.36" etag="R-ibM4gwL0ApJ8WzeFIU" version="20.8.23" type="github">
  <diagram id="Ht1M8jgEwFfnCIfOTk4-" name="Page-1">
    <mxGraphModel dx="1655" dy="1758" grid="1" gridSize="10" guides="1" tooltips="1" connect="1" arrows="1" fold="1" page="1" pageScale="1" pageWidth="1169" pageHeight="827" math="0" shadow="0">
      <root>
        <mxCell id="0" />
        <mxCell id="1" parent="0" />
        <mxCell id="UEzPUAAOIrF-is8g5C7q-74" value="AWS Cloud" style="points=[[0,0],[0.25,0],[0.5,0],[0.75,0],[1,0],[1,0.25],[1,0.5],[1,0.75],[1,1],[0.75,1],[0.5,1],[0.25,1],[0,1],[0,0.75],[0,0.5],[0,0.25]];outlineConnect=0;gradientColor=none;html=1;whiteSpace=wrap;fontSize=12;fontStyle=0;shape=mxgraph.aws4.group;grIcon=mxgraph.aws4.group_aws_cloud_alt;strokeColor=#000000;fillColor=none;verticalAlign=top;align=left;spacingLeft=30;fontColor=#232F3E;dashed=0;labelBackgroundColor=#ffffff;container=1;pointerEvents=0;collapsible=0;recursiveResize=0;" parent="1" vertex="1">
          <mxGeometry x="180" y="60" width="780" height="650" as="geometry" />
        </mxCell>
        <mxCell id="T7Un1EstgCiITqRNYE2q-20" value="Availability zone" style="sketch=0;outlineConnect=0;gradientColor=none;html=1;whiteSpace=wrap;fontSize=12;fontStyle=0;shape=mxgraph.aws4.group;grIcon=mxgraph.aws4.group_availability_zone;strokeColor=#545B64;fillColor=none;verticalAlign=top;align=left;spacingLeft=30;fontColor=#545B64;dashed=1;" vertex="1" parent="UEzPUAAOIrF-is8g5C7q-74">
          <mxGeometry x="530" y="220" width="195" height="210" as="geometry" />
        </mxCell>
        <mxCell id="T7Un1EstgCiITqRNYE2q-2" value="Region" style="sketch=0;outlineConnect=0;gradientColor=none;html=1;whiteSpace=wrap;fontSize=12;fontStyle=0;shape=mxgraph.aws4.group;grIcon=mxgraph.aws4.group_region;strokeColor=#990000;fillColor=none;verticalAlign=top;align=left;spacingLeft=30;fontColor=#B6BABF;dashed=1;" vertex="1" parent="UEzPUAAOIrF-is8g5C7q-74">
          <mxGeometry x="29.5" y="30" width="230.5" height="610" as="geometry" />
        </mxCell>
        <mxCell id="T7Un1EstgCiITqRNYE2q-1" value="Amazon EKS" style="sketch=0;outlineConnect=0;fontColor=#232F3E;gradientColor=none;strokeColor=#ffffff;fillColor=#232F3E;dashed=0;verticalLabelPosition=middle;verticalAlign=bottom;align=center;html=1;whiteSpace=wrap;fontSize=10;fontStyle=1;spacing=3;shape=mxgraph.aws4.productIcon;prIcon=mxgraph.aws4.eks;" vertex="1" parent="UEzPUAAOIrF-is8g5C7q-74">
          <mxGeometry x="80" y="100" width="80" height="100" as="geometry" />
        </mxCell>
        <mxCell id="T7Un1EstgCiITqRNYE2q-4" value="Region" style="sketch=0;outlineConnect=0;gradientColor=none;html=1;whiteSpace=wrap;fontSize=12;fontStyle=0;shape=mxgraph.aws4.group;grIcon=mxgraph.aws4.group_region;strokeColor=#0000CC;fillColor=none;verticalAlign=top;align=left;spacingLeft=30;fontColor=#B6BABF;dashed=1;" vertex="1" parent="UEzPUAAOIrF-is8g5C7q-74">
          <mxGeometry x="500" y="20" width="245" height="590" as="geometry" />
        </mxCell>
        <mxCell id="T7Un1EstgCiITqRNYE2q-5" value="Amazon EKS" style="sketch=0;outlineConnect=0;fontColor=#232F3E;gradientColor=none;strokeColor=#ffffff;fillColor=#232F3E;dashed=0;verticalLabelPosition=middle;verticalAlign=bottom;align=center;html=1;whiteSpace=wrap;fontSize=10;fontStyle=1;spacing=3;shape=mxgraph.aws4.productIcon;prIcon=mxgraph.aws4.eks;" vertex="1" parent="UEzPUAAOIrF-is8g5C7q-74">
          <mxGeometry x="580" y="90" width="80" height="100" as="geometry" />
        </mxCell>
        <mxCell id="T7Un1EstgCiITqRNYE2q-7" value="EFS" style="outlineConnect=0;dashed=0;verticalLabelPosition=bottom;verticalAlign=top;align=center;html=1;shape=mxgraph.aws3.efs_share;fillColor=#0000CC;gradientColor=none;strokeColor=#0000CC;" vertex="1" parent="UEzPUAAOIrF-is8g5C7q-74">
          <mxGeometry x="350" y="511" width="69" height="63" as="geometry" />
        </mxCell>
        <mxCell id="T7Un1EstgCiITqRNYE2q-24" style="edgeStyle=orthogonalEdgeStyle;rounded=0;orthogonalLoop=1;jettySize=auto;html=1;" edge="1" parent="UEzPUAAOIrF-is8g5C7q-74" source="T7Un1EstgCiITqRNYE2q-8" target="T7Un1EstgCiITqRNYE2q-7">
          <mxGeometry relative="1" as="geometry">
            <Array as="points">
              <mxPoint x="371" y="330" />
            </Array>
          </mxGeometry>
        </mxCell>
        <mxCell id="T7Un1EstgCiITqRNYE2q-8" value="Availability zone" style="sketch=0;outlineConnect=0;gradientColor=none;html=1;whiteSpace=wrap;fontSize=12;fontStyle=0;shape=mxgraph.aws4.group;grIcon=mxgraph.aws4.group_availability_zone;strokeColor=#545B64;fillColor=none;verticalAlign=top;align=left;spacingLeft=30;fontColor=#545B64;dashed=1;" vertex="1" parent="UEzPUAAOIrF-is8g5C7q-74">
          <mxGeometry x="29.5" y="230" width="195" height="210" as="geometry" />
        </mxCell>
        <mxCell id="T7Un1EstgCiITqRNYE2q-27" style="edgeStyle=orthogonalEdgeStyle;rounded=0;orthogonalLoop=1;jettySize=auto;html=1;" edge="1" parent="UEzPUAAOIrF-is8g5C7q-74" source="T7Un1EstgCiITqRNYE2q-9" target="T7Un1EstgCiITqRNYE2q-26">
          <mxGeometry relative="1" as="geometry" />
        </mxCell>
        <mxCell id="T7Un1EstgCiITqRNYE2q-9" value="WORKER&lt;br&gt;NODES" style="sketch=0;html=1;dashed=0;whitespace=wrap;fillColor=#2875E2;strokeColor=#ffffff;points=[[0.005,0.63,0],[0.1,0.2,0],[0.9,0.2,0],[0.5,0,0],[0.995,0.63,0],[0.72,0.99,0],[0.5,1,0],[0.28,0.99,0]];verticalLabelPosition=bottom;align=center;verticalAlign=top;shape=mxgraph.kubernetes.icon;prIcon=node" vertex="1" parent="UEzPUAAOIrF-is8g5C7q-74">
          <mxGeometry x="85.5" y="210" width="50" height="48" as="geometry" />
        </mxCell>
        <mxCell id="T7Un1EstgCiITqRNYE2q-11" value="POD&lt;br&gt;" style="sketch=0;html=1;dashed=0;whitespace=wrap;fillColor=#2875E2;strokeColor=#ffffff;points=[[0.005,0.63,0],[0.1,0.2,0],[0.9,0.2,0],[0.5,0,0],[0.995,0.63,0],[0.72,0.99,0],[0.5,1,0],[0.28,0.99,0]];verticalLabelPosition=bottom;align=center;verticalAlign=top;shape=mxgraph.kubernetes.icon;prIcon=pod" vertex="1" parent="UEzPUAAOIrF-is8g5C7q-74">
          <mxGeometry x="120" y="291" width="50" height="48" as="geometry" />
        </mxCell>
        <mxCell id="T7Un1EstgCiITqRNYE2q-12" value="PVC" style="sketch=0;html=1;dashed=0;whitespace=wrap;fillColor=#2875E2;strokeColor=#ffffff;points=[[0.005,0.63,0],[0.1,0.2,0],[0.9,0.2,0],[0.5,0,0],[0.995,0.63,0],[0.72,0.99,0],[0.5,1,0],[0.28,0.99,0]];verticalLabelPosition=bottom;align=center;verticalAlign=top;shape=mxgraph.kubernetes.icon;prIcon=pvc" vertex="1" parent="UEzPUAAOIrF-is8g5C7q-74">
          <mxGeometry x="127.5" y="359" width="50" height="48" as="geometry" />
        </mxCell>
        <mxCell id="T7Un1EstgCiITqRNYE2q-10" value="PV&lt;br&gt;" style="sketch=0;html=1;dashed=0;whitespace=wrap;fillColor=#2875E2;strokeColor=#ffffff;points=[[0.005,0.63,0],[0.1,0.2,0],[0.9,0.2,0],[0.5,0,0],[0.995,0.63,0],[0.72,0.99,0],[0.5,1,0],[0.28,0.99,0]];verticalLabelPosition=bottom;align=center;verticalAlign=top;shape=mxgraph.kubernetes.icon;prIcon=pv" vertex="1" parent="UEzPUAAOIrF-is8g5C7q-74">
          <mxGeometry x="120" y="463" width="50" height="48" as="geometry" />
        </mxCell>
        <mxCell id="T7Un1EstgCiITqRNYE2q-14" value="" style="strokeColor=#dddddd;shadow=1;strokeWidth=1;rounded=1;absoluteArcSize=1;arcSize=2;" vertex="1" parent="UEzPUAAOIrF-is8g5C7q-74">
          <mxGeometry x="69.5" y="530" width="130" height="60" as="geometry" />
        </mxCell>
        <mxCell id="T7Un1EstgCiITqRNYE2q-15" value="Kubernetes" style="sketch=0;dashed=0;connectable=0;html=1;fillColor=#5184F3;strokeColor=none;shape=mxgraph.gcp2.kubernetes_logo;part=1;labelPosition=right;verticalLabelPosition=middle;align=left;verticalAlign=middle;spacingLeft=5;fontColor=#999999;fontSize=12;" vertex="1" parent="T7Un1EstgCiITqRNYE2q-14">
          <mxGeometry width="45" height="43.65" relative="1" as="geometry">
            <mxPoint x="5" y="7.675000000000001" as="offset" />
          </mxGeometry>
        </mxCell>
        <mxCell id="T7Un1EstgCiITqRNYE2q-16" value="" style="strokeColor=#dddddd;shadow=1;strokeWidth=1;rounded=1;absoluteArcSize=1;arcSize=2;" vertex="1" parent="UEzPUAAOIrF-is8g5C7q-74">
          <mxGeometry x="575" y="510" width="130" height="60" as="geometry" />
        </mxCell>
        <mxCell id="T7Un1EstgCiITqRNYE2q-17" value="Kubernetes" style="sketch=0;dashed=0;connectable=0;html=1;fillColor=#5184F3;strokeColor=none;shape=mxgraph.gcp2.kubernetes_logo;part=1;labelPosition=right;verticalLabelPosition=middle;align=left;verticalAlign=middle;spacingLeft=5;fontColor=#999999;fontSize=12;" vertex="1" parent="T7Un1EstgCiITqRNYE2q-16">
          <mxGeometry width="45" height="43.65" relative="1" as="geometry">
            <mxPoint x="5" y="7.675000000000001" as="offset" />
          </mxGeometry>
        </mxCell>
        <mxCell id="T7Un1EstgCiITqRNYE2q-23" style="edgeStyle=orthogonalEdgeStyle;rounded=0;orthogonalLoop=1;jettySize=auto;html=1;" edge="1" parent="UEzPUAAOIrF-is8g5C7q-74" source="T7Un1EstgCiITqRNYE2q-20" target="T7Un1EstgCiITqRNYE2q-7">
          <mxGeometry relative="1" as="geometry">
            <Array as="points">
              <mxPoint x="380" y="330" />
            </Array>
          </mxGeometry>
        </mxCell>
        <mxCell id="T7Un1EstgCiITqRNYE2q-21" value="POD&lt;br&gt;" style="sketch=0;html=1;dashed=0;whitespace=wrap;fillColor=#2875E2;strokeColor=#ffffff;points=[[0.005,0.63,0],[0.1,0.2,0],[0.9,0.2,0],[0.5,0,0],[0.995,0.63,0],[0.72,0.99,0],[0.5,1,0],[0.28,0.99,0]];verticalLabelPosition=bottom;align=center;verticalAlign=top;shape=mxgraph.kubernetes.icon;prIcon=pod" vertex="1" parent="UEzPUAAOIrF-is8g5C7q-74">
          <mxGeometry x="615" y="281" width="50" height="48" as="geometry" />
        </mxCell>
        <mxCell id="T7Un1EstgCiITqRNYE2q-22" value="PVC" style="sketch=0;html=1;dashed=0;whitespace=wrap;fillColor=#2875E2;strokeColor=#ffffff;points=[[0.005,0.63,0],[0.1,0.2,0],[0.9,0.2,0],[0.5,0,0],[0.995,0.63,0],[0.72,0.99,0],[0.5,1,0],[0.28,0.99,0]];verticalLabelPosition=bottom;align=center;verticalAlign=top;shape=mxgraph.kubernetes.icon;prIcon=pvc" vertex="1" parent="UEzPUAAOIrF-is8g5C7q-74">
          <mxGeometry x="622.5" y="349" width="50" height="48" as="geometry" />
        </mxCell>
        <mxCell id="T7Un1EstgCiITqRNYE2q-26" value="Elastic Load Balancing" style="sketch=0;outlineConnect=0;fontColor=#232F3E;gradientColor=none;strokeColor=#ffffff;fillColor=#232F3E;dashed=0;verticalLabelPosition=middle;verticalAlign=bottom;align=center;html=1;whiteSpace=wrap;fontSize=10;fontStyle=1;spacing=3;shape=mxgraph.aws4.productIcon;prIcon=mxgraph.aws4.elastic_load_balancing;" vertex="1" parent="UEzPUAAOIrF-is8g5C7q-74">
          <mxGeometry x="344" y="190" width="61" height="89" as="geometry" />
        </mxCell>
        <mxCell id="T7Un1EstgCiITqRNYE2q-28" style="edgeStyle=orthogonalEdgeStyle;rounded=0;orthogonalLoop=1;jettySize=auto;html=1;" edge="1" parent="UEzPUAAOIrF-is8g5C7q-74" source="T7Un1EstgCiITqRNYE2q-19" target="T7Un1EstgCiITqRNYE2q-26">
          <mxGeometry relative="1" as="geometry" />
        </mxCell>
        <mxCell id="T7Un1EstgCiITqRNYE2q-19" value="WORKER&lt;br&gt;NODES" style="sketch=0;html=1;dashed=0;whitespace=wrap;fillColor=#2875E2;strokeColor=#ffffff;points=[[0.005,0.63,0],[0.1,0.2,0],[0.9,0.2,0],[0.5,0,0],[0.995,0.63,0],[0.72,0.99,0],[0.5,1,0],[0.28,0.99,0]];verticalLabelPosition=bottom;align=center;verticalAlign=top;shape=mxgraph.kubernetes.icon;prIcon=node" vertex="1" parent="UEzPUAAOIrF-is8g5C7q-74">
          <mxGeometry x="602.5" y="210" width="50" height="48" as="geometry" />
        </mxCell>
        <mxCell id="T7Un1EstgCiITqRNYE2q-29" value="WEB PAGE" style="sketch=0;aspect=fixed;html=1;points=[];align=center;image;fontSize=12;image=img/lib/mscae/WebAppWordPress.svg;strokeColor=#0000CC;fillColor=#0000CC;" vertex="1" parent="1">
          <mxGeometry x="524" y="-20" width="49" height="50" as="geometry" />
        </mxCell>
        <mxCell id="T7Un1EstgCiITqRNYE2q-30" style="edgeStyle=orthogonalEdgeStyle;rounded=0;orthogonalLoop=1;jettySize=auto;html=1;entryX=0.644;entryY=1.071;entryDx=0;entryDy=0;entryPerimeter=0;" edge="1" parent="1" source="T7Un1EstgCiITqRNYE2q-26" target="T7Un1EstgCiITqRNYE2q-29">
          <mxGeometry relative="1" as="geometry" />
        </mxCell>
      </root>
    </mxGraphModel>
  </diagram>
</mxfile>
